HIERARCHY
ROOT Haolin_V1:Solving:Hips
{
	OFFSET 0.000000 0.000000 0.000000
	CHANNELS 6 Xposition Yposition Zposition Xrotation Yrotation Zrotation
	JOINT Haolin_V1:Solving:Spine
	{
		OFFSET 0.000000 -12.731938 2.520517
		CHANNELS 6 Xposition Yposition Zposition Xrotation Yrotation Zrotation
		JOINT Haolin_V1:Solving:Spine1
		{
			OFFSET 0.000000 -8.486854 1.496462
			CHANNELS 6 Xposition Yposition Zposition Xrotation Yrotation Zrotation
			JOINT Haolin_V1:Solving:Spine2
			{
				OFFSET 0.000000 -8.584984 0.751091
				CHANNELS 6 Xposition Yposition Zposition Xrotation Yrotation Zrotation
				JOINT Haolin_V1:Solving:Spine3
				{
					OFFSET 0.000000 -8.617775 0.000000
					CHANNELS 6 Xposition Yposition Zposition Xrotation Yrotation Zrotation
					JOINT Haolin_V1:Solving:Neck
					{
						OFFSET 0.000000 -11.080002 -1.107998
						CHANNELS 6 Xposition Yposition Zposition Xrotation Yrotation Zrotation
						JOINT Haolin_V1:Solving:Neck1
						{
							OFFSET 0.000000 -8.314011 -0.727381
							CHANNELS 6 Xposition Yposition Zposition Xrotation Yrotation Zrotation
							JOINT Haolin_V1:Solving:Head
							{
								OFFSET 0.000000 -8.218975 -1.449226
								CHANNELS 6 Xposition Yposition Zposition Xrotation Yrotation Zrotation
								JOINT Haolin_V1:Solving:HeadEnd
								{
									OFFSET 0.000000 -9.728081 0.000002
									CHANNELS 6 Xposition Yposition Zposition Xrotation Yrotation Zrotation
									End Site
									{
										OFFSET 0.000000 -9.728081 0.000002
									}
								}
							}
						}
					}
					JOINT Haolin_V1:Solving:RightShoulder
					{
						OFFSET 0.000000 -7.914288 -5.288076
						CHANNELS 6 Xposition Yposition Zposition Xrotation Yrotation Zrotation
						JOINT Haolin_V1:Solving:RightArm
						{
							OFFSET -20.201836 -0.000008 0.000000
							CHANNELS 6 Xposition Yposition Zposition Xrotation Yrotation Zrotation
							JOINT Haolin_V1:Solving:RightForeArm
							{
								OFFSET -29.446457 -0.000008 0.000000
								CHANNELS 6 Xposition Yposition Zposition Xrotation Yrotation Zrotation
								JOINT Haolin_V1:Solving:RightHand
								{
									OFFSET -23.111885 -0.000008 0.000000
									CHANNELS 6 Xposition Yposition Zposition Xrotation Yrotation Zrotation
									JOINT Haolin_V1:Solving:RightHandThumb1
									{
										OFFSET -3.824379 2.925484 -2.843767
										CHANNELS 6 Xposition Yposition Zposition Xrotation Yrotation Zrotation
										End Site
										{
											OFFSET -5.557076 0.000000 -5.608460
										}
									}
									JOINT Haolin_V1:Solving:RightHandMiddle1
									{
										OFFSET -10.198334 -0.000004 0.065374
										CHANNELS 6 Xposition Yposition Zposition Xrotation Yrotation Zrotation
										End Site
										{
											OFFSET -7.895309 -0.000004 0.000000
										}
									}
								}
							}
						}
					}
					JOINT Haolin_V1:Solving:LeftShoulder
					{
						OFFSET 0.000000 -7.914288 -5.288076
						CHANNELS 6 Xposition Yposition Zposition Xrotation Yrotation Zrotation
						JOINT Haolin_V1:Solving:LeftArm
						{
							OFFSET 20.201836 -0.000008 0.000000
							CHANNELS 6 Xposition Yposition Zposition Xrotation Yrotation Zrotation
							JOINT Haolin_V1:Solving:LeftForeArm
							{
								OFFSET 29.446457 -0.000008 0.000000
								CHANNELS 6 Xposition Yposition Zposition Xrotation Yrotation Zrotation
								JOINT Haolin_V1:Solving:LeftHand
								{
									OFFSET 23.111885 -0.000008 0.000000
									CHANNELS 6 Xposition Yposition Zposition Xrotation Yrotation Zrotation
									JOINT Haolin_V1:Solving:LeftHandThumb1
									{
										OFFSET 3.824379 2.925484 -2.843767
										CHANNELS 6 Xposition Yposition Zposition Xrotation Yrotation Zrotation
										End Site
										{
											OFFSET 5.557076 0.000000 -5.608460
										}
									}
									JOINT Haolin_V1:Solving:LeftHandMiddle1
									{
										OFFSET 10.198334 -0.000004 0.065374
										CHANNELS 6 Xposition Yposition Zposition Xrotation Yrotation Zrotation
										End Site
										{
											OFFSET 7.895309 -0.000004 0.000000
										}
									}
								}
							}
						}
					}
				}
			}
		}
	}
	JOINT Haolin_V1:Solving:RightUpLeg
	{
		OFFSET -10.695510 0.000000 0.000000
		CHANNELS 6 Xposition Yposition Zposition Xrotation Yrotation Zrotation
		JOINT Haolin_V1:Solving:RightLeg
		{
			OFFSET 0.000000 46.236332 -0.000006
			CHANNELS 6 Xposition Yposition Zposition Xrotation Yrotation Zrotation
			JOINT Haolin_V1:Solving:RightFoot
			{
				OFFSET 0.000000 41.248135 -0.000006
				CHANNELS 6 Xposition Yposition Zposition Xrotation Yrotation Zrotation
				JOINT Haolin_V1:Solving:RightForeFoot
				{
					OFFSET 0.000000 3.207336 -0.000000
					CHANNELS 6 Xposition Yposition Zposition Xrotation Yrotation Zrotation
					JOINT Haolin_V1:Solving:RightToeBase
					{
						OFFSET 0.000000 0.000000 -12.560947
						CHANNELS 6 Xposition Yposition Zposition Xrotation Yrotation Zrotation
						JOINT Haolin_V1:Solving:RightToeBaseEnd
						{
							OFFSET 0.000000 0.000000 -3.517768
							CHANNELS 6 Xposition Yposition Zposition Xrotation Yrotation Zrotation
							End Site
							{
								OFFSET 0.000000 -3.517769 0.000004
							}
						}
					}
				}
			}
		}
	}
	JOINT Haolin_V1:Solving:LeftUpLeg
	{
		OFFSET 10.695510 0.000000 0.000000
		CHANNELS 6 Xposition Yposition Zposition Xrotation Yrotation Zrotation
		JOINT Haolin_V1:Solving:LeftLeg
		{
			OFFSET 0.000000 46.236332 -0.000006
			CHANNELS 6 Xposition Yposition Zposition Xrotation Yrotation Zrotation
			JOINT Haolin_V1:Solving:LeftFoot
			{
				OFFSET 0.000000 41.248135 -0.000006
				CHANNELS 6 Xposition Yposition Zposition Xrotation Yrotation Zrotation
				JOINT Haolin_V1:Solving:LeftForeFoot
				{
					OFFSET 0.000000 3.207336 -0.000000
					CHANNELS 6 Xposition Yposition Zposition Xrotation Yrotation Zrotation
					JOINT Haolin_V1:Solving:LeftToeBase
					{
						OFFSET 0.000000 0.000000 -12.560947
						CHANNELS 6 Xposition Yposition Zposition Xrotation Yrotation Zrotation
						JOINT Haolin_V1:Solving:LeftToeBaseEnd
						{
							OFFSET 0.000000 0.000000 -3.901837
							CHANNELS 6 Xposition Yposition Zposition Xrotation Yrotation Zrotation
							End Site
							{
								OFFSET 0.000000 -3.901840 0.000004
							}
						}
					}
				}
			}
		}
	}
}
MOTION
Frames: 4
Frame Time: 0.041667
-47.914265 -34.316193 -93.763771 156.537813 -79.195681 63.191387 0.000004 -12.731959 2.520515 20.081125 -0.707046 0.723598 0.000003 -8.486854 1.496457 4.383750 -0.390267 0.808897 -0.000001 -8.584991 0.751086 -4.203377 -0.598581 2.667786 -0.000002 -8.617786 0.000006 -3.706576 -0.440783 3.192345 0.000005 -11.080004 -1.107983 1.937241 8.498424 0.023312 0.000001 -8.314001 -0.727380 3.393203 14.298440 -1.185049 0.000006 -8.218987 -1.449218 8.595347 1.215695 -2.205867 0.000010 -9.728088 0.000020 -0.000001 0.000000 0.000000 0.000001 -7.914280 -5.288070 0.000000 15.836852 19.394857 -20.201809 0.000013 -0.000016 -45.007354 -4.135509 -69.491028 -29.446449 0.000002 0.000003 76.128633 -64.218989 74.663940 -23.111881 0.000003 0.000010 -4.742777 17.160700 15.705472 -3.824396 2.925480 -2.843763 0.000003 0.000002 -0.000003 -10.198309 0.000035 0.065386 -0.000002 0.000002 0.000002 0.000001 -7.914272 -5.288070 0.000003 -8.888252 -12.911461 20.201817 -0.000017 -0.000001 -26.219322 33.152017 94.518719 29.446444 -0.000010 -0.000002 121.129184 -9.921162 -15.922585 23.111877 -0.000013 0.000009 -178.731762 17.642146 -4.177833 3.824411 2.925462 -2.843770 0.000002 -0.000002 0.000001 10.198349 -0.000018 0.065373 -0.000001 0.000001 -0.000000 -10.695505 -0.000012 -0.000002 -23.859656 21.746050 15.909355 0.000001 46.236324 -0.000004 17.928210 0.000002 0.000001 -0.000005 41.248135 0.000015 -4.615076 5.759772 -10.867659 -0.000001 3.207336 -0.000006 -0.000000 -0.000006 -0.000000 -0.000003 -0.000005 -12.560948 6.437855 0.000006 -0.000000 0.000004 0.000007 -3.517770 -0.000001 0.000007 0.000000 10.695513 -0.000026 -0.000005 -20.268199 -8.857125 7.255613 0.000003 46.236324 -0.000013 10.447687 -0.000000 -0.000000 -0.000008 41.248158 -0.000010 -0.390269 -6.874720 -8.447313 0.000002 3.207336 0.000001 -0.000000 -0.000001 -0.000000 0.000009 0.000005 -12.560951 6.023793 -0.000001 -0.000000 0.000004 -0.000008 -3.901833 0.000000 -0.000000 -0.000000 
-47.870964 -34.312386 -93.773674 155.590193 -79.272733 62.242790 -0.000008 -12.731937 2.520523 20.078413 -0.681370 0.767705 -0.000001 -8.486854 1.496464 4.344054 -0.391607 0.815177 0.000005 -8.584977 0.751071 -4.260479 -0.590897 2.684385 -0.000003 -8.617764 0.000013 -3.721961 -0.438040 3.173939 -0.000009 -11.079996 -1.107991 2.041628 8.506763 -0.047436 -0.000004 -8.314033 -0.727380 3.459878 14.208752 -1.215020 -0.000004 -8.218978 -1.449235 8.689759 1.207832 -2.224654 -0.000002 -9.728096 0.000012 -0.000005 0.000003 -0.000000 -0.000004 -7.914307 -5.288053 -0.000014 16.058707 19.376588 -20.201832 -0.000020 -0.000014 -45.117812 -5.072156 -69.318436 -29.446453 -0.000015 -0.000011 74.746585 -64.759073 73.222797 -23.111885 -0.000028 0.000006 -4.288331 17.029405 14.361569 -3.824396 2.925472 -2.843765 0.000003 -0.000002 -0.000002 -10.198326 0.000003 0.065368 0.000002 -0.000002 0.000000 -0.000001 -7.914307 -5.288053 -0.000006 -8.867341 -12.859650 20.201822 0.000005 -0.000002 -26.072997 32.892494 94.456414 29.446455 -0.000013 0.000002 121.546495 -10.033244 -15.843008 23.111881 -0.000002 -0.000002 -178.794340 17.410419 -4.023344 3.824383 2.925485 -2.843771 0.000007 -0.000002 0.000006 10.198336 0.000001 0.065369 -0.000001 0.000005 0.000003 -10.695517 -0.000002 0.000006 -23.680017 21.749566 15.890635 -0.000004 46.236324 -0.000020 17.851589 0.000002 0.000002 -0.000011 41.248127 0.000013 -4.606379 5.662010 -10.878752 -0.000006 3.207336 0.000002 -0.000000 0.000001 -0.000000 -0.000001 -0.000000 -12.560948 6.470485 0.000001 -0.000000 0.000004 0.000000 -3.517766 0.000000 0.000001 -0.000000 10.695498 -0.000011 0.000010 -20.100461 -8.862783 7.238477 0.000005 46.236336 -0.000010 10.463398 -0.000000 0.000003 -0.000010 41.248135 -0.000010 -0.436637 -6.991857 -8.453294 -0.000011 3.207336 0.000007 -0.000000 0.000000 0.000000 -0.000002 -0.000013 -12.560949 6.078796 0.000002 -0.000000 -0.000001 0.000000 -3.901836 0.000000 0.000001 -0.000000 
-47.830315 -34.307682 -93.782715 154.657613 -79.313489 61.325420 -0.000001 -12.731937 2.520528 20.030645 -0.665365 0.799292 -0.000001 -8.486839 1.496471 4.302698 -0.391679 0.823075 -0.000006 -8.584976 0.751089 -4.321449 -0.565476 2.710155 -0.000001 -8.617785 -0.000008 -3.719619 -0.426554 3.171247 0.000000 -11.080007 -1.107979 2.193904 8.491859 -0.135086 0.000001 -8.314014 -0.727401 3.506928 14.081144 -1.267385 -0.000001 -8.218955 -1.449199 8.760123 1.204338 -2.271884 0.000002 -9.728096 0.000011 0.000001 -0.000002 0.000000 0.000002 -7.914303 -5.288053 -0.000005 16.185252 19.315944 -20.201822 -0.000004 -0.000003 -45.180752 -5.972119 -69.083060 -29.446478 -0.000008 0.000001 73.777538 -65.069593 72.211034 -23.111876 -0.000000 0.000007 -3.821906 17.046745 12.837312 -3.824374 2.925462 -2.843763 0.000004 0.000005 -0.000003 -10.198332 -0.000015 0.065366 0.000005 -0.000001 0.000002 0.000002 -7.914299 -5.288055 0.000000 -8.845585 -12.857088 20.201828 -0.000002 0.000003 -25.890691 32.656036 94.421307 29.446463 -0.000021 -0.000011 121.523996 -10.050273 -15.881558 23.111876 -0.000003 0.000003 -178.749029 17.566753 -4.138192 3.824377 2.925476 -2.843761 0.000001 0.000002 0.000008 10.198315 -0.000015 0.065369 -0.000002 0.000001 0.000004 -10.695515 0.000009 0.000017 -23.530372 21.726345 15.848513 -0.000005 46.236317 -0.000013 17.796638 -0.000001 -0.000002 -0.000003 41.248127 0.000002 -4.551444 5.562736 -10.889202 0.000001 3.207336 0.000008 -0.000000 -0.000001 0.000000 0.000004 -0.000006 -12.560953 6.439007 -0.000009 -0.000000 0.000004 0.000000 -3.517769 0.000000 0.000003 -0.000000 10.695510 0.000002 0.000008 -19.970273 -8.864759 7.202123 0.000000 46.236328 -0.000005 10.480578 -0.000000 0.000001 0.000003 41.248150 -0.000019 -0.490777 -7.114996 -8.447978 0.000003 3.207336 0.000005 -0.000000 -0.000001 0.000000 0.000011 0.000005 -12.560944 6.028203 -0.000003 0.000000 -0.000004 0.000000 -3.901830 0.000000 -0.000002 0.000000 
-47.782982 -34.295979 -93.791550 153.640980 -79.362939 60.341272 -0.000003 -12.731924 2.520517 19.987095 -0.655248 0.829427 -0.000005 -8.486858 1.496464 4.259624 -0.390981 0.826044 -0.000010 -8.584990 0.751087 -4.341792 -0.527852 2.721379 -0.000002 -8.617764 -0.000020 -3.721775 -0.422526 3.176744 -0.000007 -11.080009 -1.107990 2.253461 8.512338 -0.211118 -0.000001 -8.314025 -0.727370 3.551224 13.975770 -1.292503 -0.000008 -8.218966 -1.449234 8.878914 1.194416 -2.292588 -0.000000 -9.728096 0.000011 0.000001 0.000004 -0.000000 0.000000 -7.914272 -5.288070 -0.000009 16.231053 19.268261 -20.201839 -0.000015 0.000005 -45.091475 -6.865008 -68.756659 -29.446470 0.000010 -0.000005 73.387521 -65.206423 71.807056 -23.111887 -0.000026 0.000005 -3.413216 17.081031 11.478093 -3.824389 2.925503 -2.843763 0.000004 0.000007 0.000008 -10.198330 -0.000011 0.065373 -0.000004 0.000004 0.000005 0.000000 -7.914253 -5.288080 -0.000004 -8.842894 -12.830378 20.201817 0.000021 -0.000006 -25.678513 32.624224 94.318062 29.446470 -0.000016 0.000007 121.559008 -10.143509 -15.999091 23.111864 0.000000 0.000003 -178.691505 17.638207 -4.310920 3.824389 2.925467 -2.843758 0.000003 -0.000005 0.000003 10.198319 -0.000013 0.065367 0.000001 -0.000007 0.000001 -10.695512 0.000010 -0.000004 -23.340035 21.705508 15.777940 0.000003 46.236340 -0.000001 17.714847 0.000003 -0.000000 -0.000002 41.248150 0.000007 -4.511689 5.467166 -10.841266 0.000002 3.207321 0.000001 -0.000000 -0.000005 0.000000 -0.000001 0.000002 -12.560947 6.439151 -0.000005 -0.000000 0.000005 -0.000008 -3.517774 -0.000001 0.000005 -0.000001 10.695501 0.000018 -0.000006 -19.824580 -8.791006 7.150636 0.000011 46.236336 -0.000008 10.484884 -0.000000 0.000001 0.000012 41.248142 0.000004 -0.547678 -7.319203 -8.395981 -0.000008 3.207336 0.000006 -0.000000 0.000001 -0.000000 -0.000012 -0.000000 -12.560946 5.963830 -0.000000 -0.000000 -0.000007 0.000000 -3.901832 0.000001 -0.000002 -0.000000 
